<?xml version="1.0" encoding="UTF-8" standalone="no"?>
<!DOCTYPE svg PUBLIC "-//W3C//DTD SVG 1.1//EN" "http://www.w3.org/Graphics/SVG/1.1/DTD/svg11.dtd">
<svg width="100%" height="100%" viewBox="0 0 426 393" version="1.1" xmlns="http://www.w3.org/2000/svg" xmlns:xlink="http://www.w3.org/1999/xlink" xml:space="preserve" xmlns:serif="http://www.serif.com/" style="fill-rule:evenodd;clip-rule:evenodd;stroke-linejoin:round;stroke-miterlimit:2;">
    <style>
        .logo-core {
            transform-box: fill-box;
            transform-origin: 213px 196.5px;
            animation: tiltSpin 4s ease-in-out infinite;
        }
        @keyframes tiltSpin {
            0% {
                transform: perspective(800px) rotateX(-6deg) rotateY(-8deg) rotateZ(-4deg);
            }
            25% {
                transform: perspective(800px) rotateX(2deg) rotateY(-4deg) rotateZ(3deg);
            }
            50% {
                transform: perspective(800px) rotateX(6deg) rotateY(8deg) rotateZ(4deg);
            }
            75% {
                transform: perspective(800px) rotateX(-2deg) rotateY(4deg) rotateZ(-3deg);
            }
            100% {
                transform: perspective(800px) rotateX(-6deg) rotateY(-8deg) rotateZ(-4deg);
            }
        }
    </style>
    <defs>
        <linearGradient id="glassGradient" x1="0%" y1="0%" x2="100%" y2="100%">
            <stop offset="0%" style="stop-color:#a78bfa;stop-opacity:0.95"/>
            <stop offset="33%" style="stop-color:#818cf8;stop-opacity:0.85"/>
            <stop offset="66%" style="stop-color:#ec4899;stop-opacity:0.9"/>
            <stop offset="100%" style="stop-color:#8b5cf6;stop-opacity:0.95"/>
        </linearGradient>
        <linearGradient id="glassGradientAccent" x1="170" y1="300" x2="260" y2="360" gradientUnits="userSpaceOnUse">
            <stop offset="0%" style="stop-color:#c555a2;stop-opacity:0.9"/>
            <stop offset="50%" style="stop-color:#d861c0;stop-opacity:0.92"/>
            <stop offset="100%" style="stop-color:#8b5cf6;stop-opacity:0.94"/>
        </linearGradient>
        <radialGradient id="shineGradient" cx="30%" cy="30%">
            <stop offset="0%" style="stop-color:#ffffff;stop-opacity:0.4"/>
            <stop offset="50%" style="stop-color:#ffffff;stop-opacity:0.15"/>
            <stop offset="100%" style="stop-color:#ffffff;stop-opacity:0"/>
        </radialGradient>
        <filter id="glassEffect" x="-50%" y="-50%" width="200%" height="200%">
            <feGaussianBlur in="SourceAlpha" stdDeviation="3" result="blur"/>
            <feOffset in="blur" dx="2" dy="2" result="offsetBlur"/>
            <feComponentTransfer in="offsetBlur" result="shadow">
                <feFuncA type="linear" slope="0.4"/>
            </feComponentTransfer>
            <feMerge>
                <feMergeNode in="shadow"/>
                <feMergeNode in="SourceGraphic"/>
            </feMerge>
        </filter>
        <filter id="innerGlow">
            <feGaussianBlur in="SourceGraphic" stdDeviation="2" result="blur"/>
            <feComposite in="blur" in2="SourceGraphic" operator="atop"/>
        </filter>
    </defs>
    <g class="logo-core">
        <g transform="matrix(1.013873,0,0,1.013873,-1.942129,-0.989484)">
            <path d="M111.541,146.178C108.226,145.946 87.049,144.466 70.738,153.931C68.309,155.341 53.992,163.649 45.87,178.708C15.099,235.76 60.843,300.831 120.468,296.064C167.366,292.314 179.525,266.791 184.217,269.903C184.962,270.397 196.987,285.648 197.004,285.688C199.057,290.51 137.173,338.852 77.525,314.433C-14.856,276.613 -6.128,155.072 72.679,122.92C97.439,112.819 103.154,118.677 104.534,108.505C116.598,19.594 204.473,-3.376 257.352,21.832C315.662,49.629 319.081,105.736 320.1,111.587C321.082,117.229 334.359,115.346 350.499,122.504C428.232,156.977 424.485,244.658 389.152,284.203C328.23,352.386 243.05,315.462 205.569,265.446C199.637,257.53 196.409,255.026 198.892,251.798C208.102,239.827 207.306,239.343 210.711,234.679C212.709,231.941 212.993,234.466 214.752,237.343C246.162,288.717 301.248,309.5 344.63,287.777C412.336,253.872 394.557,154.015 330.535,146.244C263.851,138.15 244.099,213.495 280.874,240.022C325.026,271.871 367.673,213.373 329.346,194.818C319.396,190.001 326.383,204.141 325.553,212.504C322.604,242.213 280.05,229.53 281.953,200.504C284.792,157.202 342.557,154.465 361.228,188.658C386.556,235.041 343.736,289.891 289.558,274.272C237.992,259.407 220.035,204.125 214.168,190.647C211.462,184.431 209.853,191.537 204.24,204.384C157.96,310.326 64.902,283.19 56.656,228.472C47.92,170.506 101.326,153.716 127.254,172.842C157.238,194.96 136.26,235.892 112.584,229.123C84.246,221.022 109.958,189.062 95.545,194.61C66.252,205.886 80.986,250.35 117.496,249.264C170.852,247.676 183.713,159.07 111.541,146.178ZM211.5,37.855C206.8,38.06 206.821,37.594 196.432,39.154C167.239,43.539 137.787,69.781 136.371,105.495C133.757,171.381 215.362,184.775 234.01,138.299C251.183,95.496 199.683,69.455 185.699,99.597C182.421,106.663 192.652,103.563 195.487,103.324C227.466,100.634 221.575,143.756 195.446,146.116C152.367,150.007 141.998,91.504 177.806,66.952C206.082,47.564 270.409,54.757 267.672,116.507C267.311,124.673 275.187,129.543 282.279,126.085C291.657,121.513 288.762,89.243 276.029,70.802C252.008,36.014 214.445,38.004 211.5,37.855Z" fill="url(#glassGradient)" stroke="rgba(255,255,255,0.35)" stroke-width="1.2" filter="url(#glassEffect)"/>
            <path d="M111.541,146.178C108.226,145.946 87.049,144.466 70.738,153.931C68.309,155.341 53.992,163.649 45.87,178.708C15.099,235.76 60.843,300.831 120.468,296.064C167.366,292.314 179.525,266.791 184.217,269.903C184.962,270.397 196.987,285.648 197.004,285.688C199.057,290.51 137.173,338.852 77.525,314.433C-14.856,276.613 -6.128,155.072 72.679,122.92C97.439,112.819 103.154,118.677 104.534,108.505C116.598,19.594 204.473,-3.376 257.352,21.832C315.662,49.629 319.081,105.736 320.1,111.587C321.082,117.229 334.359,115.346 350.499,122.504C428.232,156.977 424.485,244.658 389.152,284.203C328.23,352.386 243.05,315.462 205.569,265.446C199.637,257.53 196.409,255.026 198.892,251.798C208.102,239.827 207.306,239.343 210.711,234.679C212.709,231.941 212.993,234.466 214.752,237.343C246.162,288.717 301.248,309.5 344.63,287.777C412.336,253.872 394.557,154.015 330.535,146.244C263.851,138.15 244.099,213.495 280.874,240.022C325.026,271.871 367.673,213.373 329.346,194.818C319.396,190.001 326.383,204.141 325.553,212.504C322.604,242.213 280.05,229.53 281.953,200.504C284.792,157.202 342.557,154.465 361.228,188.658C386.556,235.041 343.736,289.891 289.558,274.272C237.992,259.407 220.035,204.125 214.168,190.647C211.462,184.431 209.853,191.537 204.24,204.384C157.96,310.326 64.902,283.19 56.656,228.472C47.92,170.506 101.326,153.716 127.254,172.842C157.238,194.96 136.26,235.892 112.584,229.123C84.246,221.022 109.958,189.062 95.545,194.61C66.252,205.886 80.986,250.35 117.496,249.264C170.852,247.676 183.713,159.07 111.541,146.178ZM211.5,37.855C206.8,38.06 206.821,37.594 196.432,39.154C167.239,43.539 137.787,69.781 136.371,105.495C133.757,171.381 215.362,184.775 234.01,138.299C251.183,95.496 199.683,69.455 185.699,99.597C182.421,106.663 192.652,103.563 195.487,103.324C227.466,100.634 221.575,143.756 195.446,146.116C152.367,150.007 141.998,91.504 177.806,66.952C206.082,47.564 270.409,54.757 267.672,116.507C267.311,124.673 275.187,129.543 282.279,126.085C291.657,121.513 288.762,89.243 276.029,70.802C252.008,36.014 214.445,38.004 211.5,37.855Z" fill="url(#shineGradient)" opacity="0.6" filter="url(#innerGlow)"/>
            <path d="M186.447,350.549C185.652,349.635 173.176,336.381 168.757,331.31C164.922,326.909 180.33,327.999 209.455,302.448C212.428,299.84 212.795,301.546 215.853,304.066C243.991,327.255 256.611,326.563 255.427,330.469C255.19,331.249 213.868,376.562 213.231,377.094C211.226,378.767 206.912,372.056 186.447,350.549Z" fill="url(#glassGradientAccent)" stroke="rgba(255,255,255,0.35)" stroke-width="1.2" filter="url(#glassEffect)"/>
            <path d="M186.447,350.549C185.652,349.635 173.176,336.381 168.757,331.31C164.922,326.909 180.33,327.999 209.455,302.448C212.428,299.84 212.795,301.546 215.853,304.066C243.991,327.255 256.611,326.563 255.427,330.469C255.19,331.249 213.868,376.562 213.231,377.094C211.226,378.767 206.912,372.056 186.447,350.549Z" fill="url(#shineGradient)" opacity="0.55" filter="url(#innerGlow)"/>
        </g>
    </g>
</svg>
